<svg width="238" height="239" viewBox="0 0 238 239" fill="none" xmlns="http://www.w3.org/2000/svg">
<g clip-path="url(#clip0_31_135)">
<path d="M133.001 56.7953H131.535V20.821C131.535 15.2989 129.087 10.003 124.729 6.09834C120.371 2.19364 114.461 6.96776e-06 108.298 0H23.2371C20.1856 -6.90005e-06 17.1639 0.538537 14.3447 1.58488C11.5254 2.63123 8.96378 4.16488 6.80602 6.09828C4.64825 8.03169 2.93661 10.327 1.76884 12.8531C0.601058 15.3792 6.73821e-06 18.0867 0 20.8209V218.179C-2.8878e-06 220.913 0.601032 223.621 1.7688 226.147C2.93657 228.673 4.64821 230.968 6.80597 232.902C8.96373 234.835 11.5254 236.369 14.3446 237.415C17.1639 238.461 20.1855 239 23.2371 239H108.298C114.461 239 120.371 236.806 124.729 232.902C129.087 228.997 131.535 223.701 131.535 218.179V82.4025H133.001V56.7953Z" fill="#E6E6E6"/>
<path d="M109.235 5.41604H98.132C98.6426 6.53773 98.8375 7.75472 98.6996 8.9598C98.5616 10.1649 98.095 11.3211 97.3409 12.3265C96.5868 13.332 95.5683 14.1558 94.3751 14.7255C93.182 15.2951 91.8508 15.5931 90.4988 15.5932H41.7685C40.4165 15.5931 39.0853 15.2951 37.8922 14.7255C36.699 14.1558 35.6805 13.332 34.9264 12.3265C34.1722 11.3211 33.7057 10.1649 33.5677 8.95978C33.4298 7.7547 33.6247 6.5377 34.1353 5.41602H23.7648C19.1625 5.41601 14.7486 7.05419 11.4943 9.97016C8.23991 12.8861 6.41163 16.8411 6.41162 20.9649V218.033C6.41162 222.157 8.23989 226.112 11.4942 229.028C14.7486 231.944 19.1624 233.582 23.7648 233.582H109.235C111.514 233.582 113.771 233.18 115.876 232.399C117.981 231.617 119.894 230.472 121.506 229.028C123.117 227.584 124.395 225.87 125.268 223.984C126.14 222.097 126.588 220.075 126.588 218.033V20.9649C126.588 18.923 126.14 16.9011 125.268 15.0146C124.395 13.1281 123.117 11.414 121.506 9.97018C119.894 8.52634 117.981 7.38102 115.876 6.59962C113.771 5.81822 111.514 5.41604 109.235 5.41604Z" fill="white"/>
<path d="M119.536 160.198H17.0545C16.5514 160.198 16.069 160.018 15.7132 159.7C15.3575 159.381 15.1573 158.949 15.1567 158.498V135.72C15.1573 135.269 15.3575 134.837 15.7132 134.518C16.069 134.199 16.5514 134.02 17.0545 134.02H119.536C120.039 134.02 120.522 134.199 120.877 134.518C121.233 134.837 121.433 135.269 121.434 135.72V158.498C121.433 158.949 121.233 159.381 120.877 159.7C120.522 160.019 120.039 160.198 119.536 160.198ZM17.0545 134.7C16.7526 134.7 16.4631 134.807 16.2496 134.999C16.0361 135.19 15.9161 135.449 15.9158 135.72V158.498C15.9161 158.769 16.0361 159.028 16.2496 159.219C16.4631 159.411 16.7526 159.518 17.0545 159.519H119.536C119.838 159.518 120.128 159.411 120.341 159.219C120.555 159.028 120.675 158.769 120.675 158.498V135.72C120.675 135.449 120.555 135.19 120.341 134.999C120.128 134.807 119.838 134.7 119.536 134.7H17.0545Z" fill="#E6E6E6"/>
<path d="M30.3389 154.251C34.741 154.251 38.3096 151.053 38.3096 147.109C38.3096 143.164 34.741 139.967 30.3389 139.967C25.9368 139.967 22.3682 143.164 22.3682 147.109C22.3682 151.053 25.9368 154.251 30.3389 154.251Z" fill="#E6E6E6"/>
<path d="M48.7474 142.348C48.3989 142.353 48.0667 142.481 47.8223 142.703C47.5779 142.926 47.4409 143.226 47.4409 143.538C47.4409 143.85 47.5779 144.15 47.8223 144.373C48.0667 144.595 48.3989 144.723 48.7474 144.728H111.375C111.727 144.734 112.068 144.615 112.322 144.396C112.576 144.177 112.722 143.877 112.729 143.561C112.736 143.245 112.602 142.94 112.358 142.713C112.114 142.485 111.779 142.354 111.426 142.348L111.419 142.348C111.404 142.348 111.39 142.348 111.375 142.348H48.7474Z" fill="#E6E6E6"/>
<path d="M48.7474 149.49C48.3989 149.496 48.0667 149.623 47.8223 149.846C47.5779 150.069 47.4409 150.368 47.4409 150.681C47.4409 150.993 47.5779 151.293 47.8223 151.515C48.0667 151.738 48.3989 151.866 48.7474 151.871H111.375C111.727 151.875 112.066 151.755 112.319 151.535C112.571 151.316 112.716 151.015 112.722 150.7C112.728 150.385 112.594 150.081 112.349 149.854C112.105 149.627 111.77 149.496 111.419 149.49C111.404 149.49 111.39 149.49 111.375 149.49H48.7474Z" fill="#E6E6E6"/>
<path d="M119.536 198.288H17.0545C16.5514 198.288 16.069 198.108 15.7132 197.79C15.3575 197.471 15.1573 197.039 15.1567 196.588V173.81C15.1573 173.359 15.3575 172.927 15.7132 172.608C16.069 172.289 16.5514 172.11 17.0545 172.109H119.536C120.039 172.11 120.522 172.289 120.877 172.608C121.233 172.927 121.433 173.359 121.434 173.81V196.588C121.433 197.039 121.233 197.471 120.877 197.79C120.522 198.108 120.039 198.288 119.536 198.288ZM17.0545 172.789C16.7526 172.79 16.4631 172.897 16.2496 173.089C16.0361 173.28 15.9161 173.539 15.9158 173.81V196.588C15.9161 196.859 16.0361 197.118 16.2496 197.309C16.4631 197.501 16.7526 197.608 17.0545 197.608H119.536C119.838 197.608 120.128 197.501 120.341 197.309C120.555 197.118 120.675 196.859 120.675 196.588V173.81C120.675 173.539 120.555 173.28 120.341 173.089C120.128 172.897 119.838 172.79 119.536 172.789H17.0545Z" fill="#E6E6E6"/>
<path d="M30.3389 192.341C34.741 192.341 38.3096 189.143 38.3096 185.199C38.3096 181.254 34.741 178.057 30.3389 178.057C25.9368 178.057 22.3682 181.254 22.3682 185.199C22.3682 189.143 25.9368 192.341 30.3389 192.341Z" fill="#E6E6E6"/>
<path d="M48.7474 180.438C48.3989 180.443 48.0667 180.571 47.8223 180.793C47.5779 181.016 47.4409 181.316 47.4409 181.628C47.4409 181.94 47.5779 182.24 47.8223 182.463C48.0667 182.685 48.3989 182.813 48.7474 182.818H111.375C111.727 182.823 112.066 182.702 112.319 182.482C112.571 182.263 112.716 181.963 112.722 181.647C112.728 181.332 112.594 181.028 112.349 180.801C112.105 180.574 111.77 180.444 111.419 180.438C111.404 180.437 111.39 180.437 111.375 180.438H48.7474Z" fill="#E6E6E6"/>
<path d="M48.7474 187.58C48.3989 187.585 48.0667 187.713 47.8223 187.936C47.5779 188.158 47.4409 188.458 47.4409 188.771C47.4409 189.083 47.5779 189.383 47.8223 189.605C48.0667 189.828 48.3989 189.956 48.7474 189.961H111.375C111.727 189.965 112.066 189.844 112.319 189.625C112.571 189.405 112.716 189.105 112.722 188.79C112.728 188.475 112.594 188.17 112.349 187.944C112.105 187.717 111.77 187.586 111.419 187.58C111.404 187.58 111.39 187.58 111.375 187.58H48.7474Z" fill="#E6E6E6"/>
<path d="M66.1383 112.931C56.579 112.934 47.4097 109.535 40.6475 103.481C33.8853 97.4272 30.0841 89.2141 30.0801 80.6488V80.6218C30.0801 80.5542 30.0801 80.4829 30.0845 80.4153C30.1944 62.7216 46.369 48.3125 66.1383 48.3125C75.7015 48.3115 84.8735 51.7146 91.6365 57.773C98.3994 63.8314 102.199 72.0489 102.201 80.6178C102.202 89.1867 98.4037 97.405 91.6423 103.465C84.8808 109.525 75.7097 112.93 66.1465 112.93H66.1383V112.931ZM66.1383 48.992C56.8189 49.0106 47.8843 52.3237 41.2756 58.2114C34.6669 64.099 30.9182 72.0855 30.8439 80.4356C30.8398 80.5079 30.8398 80.567 30.8398 80.6208C30.839 86.8772 32.9086 92.9933 36.7871 98.1958C40.6656 103.398 46.1787 107.453 52.6292 109.848C59.0798 112.243 66.1781 112.87 73.0265 111.651C79.8748 110.431 86.1658 107.419 91.1037 102.995C96.0416 98.572 99.4047 92.9359 100.768 86.7999C102.131 80.6639 101.433 74.3035 98.7613 68.5231C96.0901 62.7426 91.5658 57.8017 85.7607 54.3252C79.9555 50.8487 73.1302 48.9927 66.1478 48.992H66.1383Z" fill="#E6E6E6"/>
<path d="M115.491 151.996C123.587 151.996 130.151 146.115 130.151 138.86C130.151 131.606 123.587 125.725 115.491 125.725C107.394 125.725 100.831 131.606 100.831 138.86C100.831 146.115 107.394 151.996 115.491 151.996Z" fill="white"/>
<path d="M110.399 144.771C110.374 144.771 110.349 144.771 110.324 144.77H102.444C101.444 144.756 100.49 144.39 99.7888 143.752C99.0872 143.113 98.6938 142.253 98.6934 141.357C98.693 140.461 99.0856 139.601 99.7867 138.962C100.488 138.323 101.441 137.957 102.441 137.942H110.327C110.366 137.941 110.408 137.941 110.45 137.942C111.456 137.954 112.415 138.323 113.119 138.966C113.823 139.61 114.215 140.477 114.208 141.379C114.201 142.28 113.797 143.143 113.084 143.778C112.37 144.413 111.405 144.77 110.399 144.771Z" fill="#796A6E"/>
<path d="M238 238.201H119.241V238.937H238V238.201Z" fill="#3F3D56"/>
<path d="M126.558 175.933C126.464 175.803 126.387 175.665 126.327 175.52L124.434 170.979C124.214 170.449 124.238 169.862 124.5 169.347C124.762 168.832 125.241 168.431 125.833 168.233L168.07 154.101C168.661 153.904 169.317 153.925 169.891 154.159C170.466 154.394 170.913 154.824 171.135 155.354L173.027 159.895C173.136 160.157 173.187 160.437 173.176 160.717C173.165 160.997 173.092 161.272 172.962 161.528C172.833 161.783 172.648 162.012 172.419 162.203C172.19 162.394 171.921 162.543 171.628 162.641L129.392 176.773C128.883 176.943 128.325 176.952 127.81 176.799C127.295 176.647 126.853 176.341 126.558 175.933Z" fill="#796A6E"/>
<path d="M167.935 152.927L150.759 159.064C150.218 159.21 149.761 159.536 149.481 159.977C149.202 160.417 149.122 160.937 149.259 161.428L151.253 168.579C151.331 168.861 151.479 169.125 151.685 169.35C151.891 169.575 152.15 169.757 152.443 169.882C152.737 170.006 153.058 170.071 153.383 170.072C153.708 170.072 154.029 170.008 154.323 169.884L171.546 162.62C172.091 162.437 172.533 162.067 172.776 161.592C173.018 161.117 173.04 160.576 172.837 160.086L170.767 154.085C170.562 153.595 170.149 153.198 169.618 152.981C169.087 152.764 168.482 152.744 167.935 152.927Z" fill="#2F2E41"/>
<path d="M199.367 197.478C198.828 197.534 198.284 197.423 197.824 197.164C197.365 196.904 197.018 196.513 196.841 196.053L182.139 157.864C182.037 157.599 181.994 157.319 182.013 157.039C182.032 156.759 182.112 156.485 182.249 156.233C182.386 155.981 182.577 155.756 182.811 155.57C183.046 155.384 183.318 155.242 183.614 155.15L188.728 153.569C189.325 153.385 189.98 153.421 190.548 153.669C191.115 153.917 191.55 154.356 191.757 154.891L206.459 193.081C206.664 193.616 206.624 194.202 206.347 194.711C206.071 195.22 205.58 195.609 204.984 195.794L199.87 197.375C199.707 197.425 199.538 197.46 199.367 197.478Z" fill="#796A6E"/>
<path d="M192.853 154.237L198.496 170.015C198.714 170.482 198.724 171.006 198.523 171.479C198.321 171.952 197.924 172.338 197.414 172.556L189.989 175.727C189.695 175.852 189.375 175.918 189.05 175.919C188.725 175.92 188.404 175.856 188.109 175.733C187.815 175.609 187.555 175.429 187.348 175.204C187.141 174.98 186.992 174.717 186.912 174.435L182.209 157.908C182.02 157.414 182.057 156.873 182.312 156.403C182.567 155.934 183.019 155.574 183.57 155.402L190.054 153.016C190.606 152.845 191.211 152.879 191.736 153.107C192.26 153.336 192.662 153.743 192.853 154.237Z" fill="#2F2E41"/>
<path d="M175.768 238.417H170.359C169.727 238.416 169.122 238.191 168.675 237.791C168.229 237.391 167.977 236.848 167.977 236.282V195.885C167.977 195.319 168.229 194.776 168.675 194.376C169.122 193.976 169.727 193.751 170.359 193.75H175.768C176.4 193.751 177.005 193.976 177.452 194.376C177.899 194.776 178.15 195.319 178.15 195.885V236.282C178.15 236.848 177.899 237.391 177.452 237.791C177.005 238.191 176.4 238.416 175.768 238.417Z" fill="#2F2E41"/>
<path d="M186.467 238.417H181.058C180.426 238.416 179.82 238.191 179.374 237.791C178.927 237.391 178.676 236.848 178.675 236.282V195.885C178.676 195.319 178.927 194.776 179.374 194.376C179.82 193.976 180.426 193.751 181.058 193.75H186.467C187.099 193.751 187.704 193.976 188.151 194.376C188.597 194.776 188.849 195.319 188.849 195.885V236.282C188.849 236.848 188.597 237.391 188.151 237.791C187.704 238.191 187.099 238.416 186.467 238.417Z" fill="#2F2E41"/>
<path d="M190.925 200.634H166.347C165.667 200.633 165.014 200.391 164.534 199.96C164.053 199.529 163.782 198.945 163.781 198.335V162.558C163.781 159.028 165.346 155.643 168.132 153.147C170.918 150.65 174.696 149.248 178.636 149.248C182.576 149.248 186.354 150.65 189.14 153.147C191.926 155.643 193.491 159.028 193.491 162.558V198.335C193.49 198.945 193.22 199.529 192.739 199.96C192.258 200.391 191.606 200.633 190.925 200.634Z" fill="#CCCCCC"/>
<path d="M194.625 209.386H182.164V146.283L182.396 146.34C185.905 147.203 189.002 149.074 191.211 151.665C193.42 154.257 194.619 157.426 194.625 160.687V209.386Z" fill="#2F2E41"/>
<path d="M174.095 209.386H161.634V160.687C161.64 157.426 162.84 154.257 165.049 151.665C167.258 149.074 170.355 147.203 173.864 146.34L174.095 146.283V209.386Z" fill="#2F2E41"/>
<path d="M178.45 141.848C189.283 141.848 198.065 133.979 198.065 124.273C198.065 114.566 189.283 106.697 178.45 106.697C167.617 106.697 158.835 114.566 158.835 124.273C158.835 133.979 167.617 141.848 178.45 141.848Z" fill="#796A6E"/>
<path d="M200.626 120.226C200.626 120.226 201.726 92.9692 187.432 101.836C187.432 101.836 179.186 77.042 159.028 114.151L153.164 119.405C153.164 119.405 179.552 116.121 204.108 126.302L200.626 120.226Z" fill="#2F2E41"/>
<path d="M178.749 132.976C177.538 132.946 176.03 132.908 174.868 132.147C174.522 131.912 174.238 131.611 174.035 131.267C173.833 130.922 173.716 130.542 173.695 130.153C173.674 129.877 173.725 129.6 173.843 129.344C173.961 129.088 174.144 128.86 174.377 128.678C174.984 128.218 175.87 128.11 176.825 128.362L175.835 121.884L176.561 121.795L177.724 129.41L177.118 129.161C176.415 128.872 175.45 128.725 174.85 129.179C174.703 129.298 174.588 129.445 174.515 129.61C174.442 129.775 174.412 129.953 174.428 130.13C174.445 130.42 174.533 130.702 174.683 130.959C174.834 131.215 175.044 131.44 175.3 131.617C176.204 132.209 177.406 132.285 178.77 132.319L178.749 132.976Z" fill="#2F2E41"/>
<path d="M172.244 122.443H168.296V123.1H172.244V122.443Z" fill="#2F2E41"/>
<path d="M184.705 122.443H180.757V123.1H184.705V122.443Z" fill="#2F2E41"/>
<path d="M134.717 177.607C134.188 177.827 133.583 177.849 133.035 177.67C132.487 177.49 132.042 177.123 131.796 176.649L119.148 152.221C118.903 151.747 118.877 151.205 119.078 150.715C119.279 150.224 119.688 149.825 120.217 149.605C120.746 149.385 121.351 149.362 121.899 149.542C122.446 149.722 122.892 150.089 123.138 150.563L135.786 174.99C136.031 175.464 136.057 176.006 135.856 176.497C135.656 176.988 135.246 177.387 134.717 177.607Z" fill="#3F3D56"/>
<path d="M121.721 151.324C121.332 151.324 120.959 151.185 120.685 150.939C120.41 150.693 120.255 150.359 120.255 150.01V133.278H101.93C101.541 133.278 101.168 133.139 100.893 132.893C100.618 132.646 100.464 132.312 100.464 131.964C100.464 131.616 100.618 131.281 100.893 131.035C101.168 130.789 101.541 130.65 101.93 130.65H121.721C122.11 130.65 122.483 130.789 122.758 131.035C123.033 131.281 123.187 131.616 123.187 131.964V150.01C123.187 150.359 123.033 150.693 122.758 150.939C122.483 151.185 122.11 151.324 121.721 151.324Z" fill="#796A6E"/>
<path d="M122.068 153.181C118.912 154.493 115.392 154.937 111.954 154.457C108.516 153.977 105.315 152.594 102.754 150.483C100.193 148.373 98.3884 145.629 97.5679 142.599C96.7474 139.57 96.948 136.39 98.1444 133.462C99.3407 130.535 101.479 127.991 104.289 126.152C107.099 124.314 110.454 123.263 113.931 123.133C117.407 123.003 120.848 123.8 123.819 125.422C126.791 127.044 129.158 129.42 130.622 132.248C132.58 136.041 132.78 140.375 131.176 144.3C129.572 148.224 126.297 151.418 122.068 153.181ZM109.111 128.158C106.744 129.142 104.755 130.733 103.397 132.73C102.039 134.726 101.373 137.039 101.481 139.375C101.59 141.711 102.47 143.966 104.009 145.854C105.548 147.743 107.677 149.18 110.127 149.984C112.578 150.788 115.239 150.922 117.775 150.371C120.311 149.82 122.608 148.607 124.375 146.886C126.141 145.165 127.299 143.014 127.701 140.703C128.103 138.393 127.731 136.028 126.633 133.907C125.157 131.065 122.483 128.864 119.198 127.786C115.914 126.708 112.286 126.842 109.111 128.158Z" fill="#3F3D56"/>
</g>
<defs>
<clipPath id="clip0_31_135">
<rect width="238" height="239" fill="white"/>
</clipPath>
</defs>
</svg>
